# xmcd CD database file
#
# Track frame offsets:
#	150
#	16718
#	35737
#	60550
#	79677
#	104272
#	125648
#	149381
#	176725
#	198293
#	214522
#
# Disc length: 3092 seconds
#
# Revision: 0
# Processed by: cddbd v1.5.2PL0 Copyright (c) Steve Scherf et al.
# Submitted via: CDex 1.51
#
DISCID=940c120b
DTITLE=Pat Appleton - A Higher Desire
DYEAR=2017
DGENRE=Jazz
TTITLE0=New World Brave
TTITLE1=A Dangerous Thing
TTITLE2=Abstract
TTITLE3=Everyday Love
TTITLE4=Herbertine
TTITLE5=Peach Blossom
TTITLE6=A Higher Desire
TTITLE7=Paradise
TTITLE8=Other People's Lives
TTITLE9=The Blame Game
TTITLE10=So Large (Bonus Track)
EXTD=YEAR: 2017
EXTT0=
EXTT1=
EXTT2=
EXTT3=
EXTT4=
EXTT5=
EXTT6=
EXTT7=
EXTT8=
EXTT9=
EXTT10=
PLAYORDER=
